<svg width="560" height="56" fill="none" xmlns="http://www.w3.org/2000/svg"><path fill-rule="evenodd" clip-rule="evenodd" d="M545.825 11.9417c2.987 0 5.885 1.26 7.757 3.583h.016c1.949 2.4214 2.608 5.5429 1.809 8.5348l-1.078 4.0289c-.441 1.6333-1.286 3.08-2.411 4.2311-.016.0155-.016.0311-.016.0518.353 1.7785.301 3.6296-.181 5.4393l-.643 2.4007c-1.639 6.103-9.069 12.6726-21.524 12.6726h-35.259c-1.291 0-2.536-.2489-3.687-.7259-.01-.0052-.026-.0052-.042 0-1.14.4667-2.38.7259-3.665.7259h-14.239c-2.987 0-5.89-1.26-7.762-3.5881-1.494-1.8511-2.225-4.1223-2.126-6.4245l-.773 2.8778c-1.13 4.2-4.952 7.1348-9.302 7.1348h-14.503c-1.348 0-2.655-.2748-3.847-.7933-.016-.0052-.031-.0052-.047 0-1.182.5133-2.473.7933-3.821.7933h-14.503c-2.697 0-5.212-1.0992-7.026-3.0437-.016-.0155-.047-.0259-.068-.0155-4.641 2.0274-10.002 3.0592-15.058 3.0592h-18.137c-5.476 0-10.355-1.1252-14.182-3.2044-.026-.0156-.052-.0104-.072.0104-1.784 1.9807-4.366 3.194-7.161 3.194h-34.165c-4.693 0-8.903-.98-12.243-2.7896-.02-.0104-.046-.0104-.067.0104-1.758 1.737-4.169 2.7792-6.761 2.7792h-14.503c-2.049 0-3.988-.6326-5.6-1.7889-.021-.0155-.047-.0155-.068 0-1.592 1.1356-3.531 1.7889-5.584 1.7889H260.78c-2.048 0-3.993-.6377-5.605-1.794-.021-.0156-.047-.0156-.068 0-1.592 1.1355-3.531 1.794-5.589 1.794h-14.503c-1.489 0-2.92-.3318-4.211-.9592-.009-.0032-.021-.0044-.032-.0037-.007.0004-.014.0016-.02.0037-1.28.617-2.701.9592-4.189.9592h-38.609c-4.071 0-7.752-.8192-10.744-2.3333-.021-.0104-.047-.0052-.062.0104-1.706 1.4622-3.915 2.3281-6.274 2.3281h-34.165c-4.408 0-8.385-.8659-11.615-2.463-.026-.0103-.052-.0051-.068.0104-1.721 1.5452-3.987 2.4526-6.445 2.4526h-15.363c-1.883 0-3.7234-.5496-5.2997-1.5763l-5.4133-3.5363c-.0311-.0207-.0726-.0104-.0882.0207-1.6489 3.0801-4.8896 5.0919-8.4933 5.0919h-14.503c-2.6807 0-5.18-1.0837-6.9896-3.0074-.0156-.0156-.0467-.0207-.0674-.0104-4.1689 1.9963-9.0741 3.0178-13.6837 3.0178H24.2783c-7.5859 0-13.9015-2.5615-17.32889-7.0259-2.43703-3.1733-3.24592-7.1711-2.22962-10.9667l2.49925-9.3229C9.61979 16.6239 20.8665 11.9417 30.7339 11.9417h14.2903c.026 0 .0519-.0207.0571-.0467l.4303-1.6022c1.1356-4.23628 4.9726-7.18147 9.3593-7.18147h14.1763c2.9711 0 5.8592 1.23408 7.7363 3.5363 1.2496 1.52963 1.9755 3.34963 2.1415 5.23707.0052.0311.0259.057.057.057h35c5.387.0259 10.085 1.4933 13.393 4.1067.021.0103.047.0103.068 0 4.542-2.7171 10.334-4.1119 15.716-4.1119h33.522c1.732 0 3.391.4511 4.833 1.2911.015.0104.041.0104.057 0 1.431-.8244 3.08-1.2911 4.812-1.2911h34.165c5.066 0 9.567 1.1459 13.02 3.2356.021.0155.052.0103.073-.0104 1.783-1.9963 4.371-3.22 7.181-3.22h54.19c6.083 0 11.351 1.6489 14.965 4.6044.021.0104.046.0156.067 0 4.646-3.0489 10.806-4.6096 16.51-4.6096h33.522c2.686 0 5.185 1.0889 7 3.0178.021.0156.047.0259.067.0155 4.626-2.0066 9.956-3.0281 14.991-3.0281h18.138c5.149 0 9.769 1.0007 13.486 2.8467.037.0155.083-.0104.083-.0519.042-.643.145-1.2859.317-1.9237 1.913-7.15037 10.385-9.70147 17.676-9.70147 3.702 0 10.448.70518 14.072 5.42889.789 1.02666 1.364 2.16738 1.706 3.35998.006.0259.031.0415.057.0415h33.201c5.901 0 11.034 1.5504 14.638 4.3452.021.0155.047.0155.067 0 3.651-2.5667 8.774-4.3452 15.255-4.3452h34.995ZM24.2627 44.4632H48.6694c7.3993 0 14.28-3.303 15.3741-7.3837l6.4348-24.0282c.2022-.7622-.3733-1.514-1.1615-1.514H54.8139c-.5445 0-1.0215.3681-1.1615.8918L51.765 19.481c-.14.5288-.6171.8918-1.1615.8918H30.7183c-7.3993 0-14.28 3.303-15.3741 7.3837l-2.4992 9.323c-1.0889 4.0755 4.0185 7.3837 11.4177 7.3837Zm98.8603-15.26.643-2.406h.006c.949-3.5518-3.5-6.4296-9.94-6.4296H75.2227c-.5444 0-1.0214.3682-1.1614.8919l-3.8526 14.3681-1.96 7.3215c-.2023.7622.3733 1.5141 1.1615 1.5141h14.5029c.5445 0 1.0215-.3682 1.1615-.8919l1.8874-7.0518c.14-.5289.617-.8919 1.1615-.8919h.8192c.2334 0 .4615.0674.6586.1971l12.9267 8.4414c.197.1297.425.1971.658.1971h15.385c1.198 0 1.659-1.5556.658-2.2089l-10.147-6.6215h.659c6.44 0 12.434-2.8778 13.382-6.4296Zm53.626-3.2978 1.078-4.0237.005.0052c.203-.7622-.373-1.5141-1.161-1.5141h-33.522c-7.4 0-14.28 3.303-15.374 7.3837l-2.5 9.323c-1.089 4.0755 4.019 7.3837 11.418 7.3837h34.165c.545 0 1.022-.3682 1.162-.8919l1.078-4.0237c.203-.7622-.373-1.5141-1.161-1.5141h-25.895c-2.224 0-3.759-.9903-3.433-2.2192l.047-.1815h30.567c.544 0 1.021-.3681 1.161-.8918l1.079-4.0238c.202-.7622-.374-1.514-1.162-1.514h-29.923l.046-.1815c.327-1.2289 2.401-2.2245 4.625-2.2245h26.538c.545 0 1.022-.3681 1.162-.8918Zm50.96 17.6608 4.236-15.8149.005-.0052c1.089-4.0807-4.018-7.3837-11.418-7.3837h-34.165c-.544 0-1.021.3682-1.161.8919l-1.079 4.0237c-.202.7622.374 1.5141 1.162 1.5141h25.894c2.225 0 3.76.9903 3.433 2.2192l-.052.1815h-22.54c-6.44 0-12.434 2.8778-13.383 6.4296l-.643 2.406c-.949 3.5518 3.5 6.4296 9.94 6.4296h38.609c.545 0 1.022-.3681 1.162-.8918Zm74.475.0051 4.236-15.8148.015.0052c1.089-4.0756-4.018-7.3837-11.417-7.3837h-54.196c-.544 0-1.021.3682-1.161.8919l-5.813 21.6896c-.202.7622.373 1.5141 1.161 1.5141h14.503c.545 0 1.022-.3682 1.162-.8919l4.257-15.8822c.14-.5289.617-.8919 1.161-.8919h3.822c2.224 0 3.759.9904 3.432 2.2193l-.502 1.877-1.318 4.9156-1.913 7.1348c-.202.7622.373 1.5141 1.162 1.5141h14.503c.544 0 1.021-.3682 1.161-.8919l4.236-15.8148v-.0104c.14-.5496.607-.9489 1.172-.9489h3.811c2.225 0 3.76.9904 3.433 2.2193l-.503 1.877-1.317 4.9156-1.913 7.1348c-.203.7622.373 1.5141 1.161 1.5141h14.503c.544 0 1.022-.3682 1.162-.8919Zm129.65-32.034c-4.76 0-9.028 1.5503-9.541 3.4585-.513 1.9133 2.925 3.4585 7.685 3.4585s9.027-1.5504 9.54-3.4585c.514-1.9134-2.929-3.4585-7.684-3.4585Zm-71.68 14.3681 1.078-4.0237c.203-.7622-.373-1.5141-1.161-1.5141h-33.522c-7.4 0-14.28 3.303-15.374 7.3837l-2.5 9.323c-1.089 4.0755 4.019 7.3837 11.418 7.3837h34.165c.545 0 1.022-.3681 1.162-.8918l1.078-4.0238c.203-.7622-.373-1.514-1.161-1.514h-25.895c-2.224 0-3.759-.9904-3.433-2.2193l1.82-6.7926c.327-1.2237 2.401-2.2193 4.626-2.2193h26.537c.545 0 1.022-.3681 1.162-.8918Zm52.63 9.4422 1.571-5.8696c1.353-5.0296-4.957-9.1104-14.083-9.1104h-18.138c-9.126 0-17.619 4.0808-18.968 9.1104l-1.571 5.8696c-1.353 5.0296 4.957 9.1104 14.083 9.1104h18.138c9.126 0 17.619-4.0808 18.968-9.1104Zm17.681 9.1156c.544 0 1.021-.3682 1.161-.8919l5.813-21.6896c.202-.7622-.373-1.5141-1.161-1.5141h-14.503c-.545 0-1.022.3682-1.162.8919l-5.812 21.6896c-.203.7622.373 1.5141 1.161 1.5141h14.503Zm57.581-.8919 4.237-15.8148h.005c1.089-4.0755-4.019-7.3837-11.418-7.3837h-36.877c-.544 0-1.021.3682-1.161.8919l-5.813 21.6896c-.202.7622.373 1.5141 1.162 1.5141h14.503c.544 0 1.021-.3682 1.161-.8919l1.483-5.5378.949-3.5414 1.825-6.803c.14-.5289.617-.8919 1.161-.8919h12.258c2.225 0 3.76.9904 3.433 2.2193l-1.468 5.4704-.948 3.5414-1.317 4.9156c-.203.7622.373 1.5141 1.161 1.5141h14.503c.544 0 1.021-.3682 1.161-.8919Zm58.126-17.6659 1.079-4.0237h-.005c.202-.7622-.374-1.5141-1.162-1.5141h-35.259c-6.44 0-12.434 2.8778-13.383 6.4296l-.643 2.406c-.949 3.5518 3.5 6.4296 9.94 6.4296h17.65c1.203 0 2.038.5393 1.857 1.203-.182.6637-1.302 1.2029-2.505 1.2029h-28.389c-.544 0-1.021.3682-1.161.8919l-1.079 4.0237c-.202.7622.374 1.5141 1.162 1.5141h35.259c6.44 0 12.434-2.8778 13.383-6.4297l.643-2.4059c.954-3.5519-3.495-6.4296-9.935-6.4296h-17.65c-1.203 0-2.038-.5393-1.856-1.203.181-.6637 1.301-1.203 2.504-1.203h28.389c.544 0 1.021-.3681 1.161-.8918Zm-497.9373.8908H36.6199c-2.2245 0-4.2934.9956-4.6252 2.2193l-1.82 6.7926c-.3267 1.2288 1.2081 2.2192 3.4326 2.2192h9.1518c2.2245 0 4.2934-.9955 4.6252-2.2192l2.0119-7.503c.2022-.7622-.3682-1.5141-1.1615-1.5141v.0052Zm56.3563.0007H90.4877c-.5445 0-1.0215.363-1.1615.8918-.2022.7623.3681 1.5141 1.1615 1.5141h13.4603c1.203 0 2.323-.5393 2.505-1.203.176-.6637-.653-1.2029-1.856-1.2029h-.006Zm287.057 0h-4.345c-3.552 0-6.855 1.5867-7.379 3.5415l-1.109 4.1481c-.524 1.9548 1.928 3.5415 5.475 3.5415h4.351c3.551 0 6.854-1.5867 7.378-3.5415l1.11-4.1481c.523-1.9548-1.929-3.5415-5.481-3.5415Zm-193.832 8.832h13.456c.793 0 1.364.7518 1.161 1.5141-.14.5289-.617.8918-1.161.8918h-14.104c-1.203 0-2.038-.5392-1.856-1.2029.181-.6637 1.301-1.203 2.504-1.203Z" fill="#fff"/></svg>