<svg width="480" height="400" viewBox="0 0 480 400" fill="none" xmlns="http://www.w3.org/2000/svg">
<g clip-path="url(#clip0_356_74)">
<path d="M85.9984 203.575C85.1984 203.787 84.3704 203.323 84.1824 202.515C81.5545 191.243 80.1145 179.511 80.0065 167.463C79.2145 79.0203 150.893 6.35732 239.34 6.00133C313.859 5.70133 376.598 56.3526 394.718 125.112C394.934 125.936 394.386 126.752 393.55 126.908C393.438 126.928 393.326 126.952 393.206 126.98L293.967 150.511C291.439 151.111 290.608 149.763 292.951 148.863L384.914 113.56C387.586 112.536 386.054 111.108 383.326 112.08L289.384 145.539C286.992 146.391 285.28 145.371 287.292 144.291L366.278 101.904C368.574 100.672 366.054 99.68 363.666 100.876L281.42 141.983C279.324 143.031 276.852 142.403 278.396 141.215L339.027 94.6281C340.787 93.2761 337.455 92.7841 335.567 94.1201L270.624 140.071C268.968 141.243 265.904 141.051 266.876 139.839L305.015 92.2321C306.123 90.8481 302.203 90.8921 300.947 92.2761L257.732 139.939C256.632 141.155 253.18 141.415 253.512 140.259L266.564 94.8721C266.944 93.5521 262.7 94.1281 262.16 95.4681L243.62 141.595C243.148 142.771 239.548 143.463 239.216 142.443L226.288 102.372C225.412 99.656 221.352 100.668 221.852 103.476L229.248 144.927C229.436 145.983 225.932 147.063 224.964 146.247L186.937 114.22C185.833 113.288 181.817 114.776 182.769 115.76L215.601 149.707C216.437 150.571 213.269 151.963 211.725 151.407L151.193 129.612C149.434 128.98 145.954 130.784 147.582 131.484L203.609 155.615C205.037 156.231 202.417 157.839 200.405 157.579L121.49 147.495C119.198 147.203 116.486 149.199 118.674 149.567L194.077 162.235C195.997 162.559 194.109 164.271 191.765 164.331L99.8502 166.647C97.1783 166.715 95.4223 168.771 98.0262 168.783L187.669 169.127C189.953 169.135 188.921 170.843 186.409 171.211L87.7544 185.771C84.8864 186.195 84.2064 188.171 87.0464 187.823L184.821 175.819C187.313 175.515 187.209 177.095 184.697 177.751L86.0224 203.571C86.0224 203.571 86.0064 203.571 86.0024 203.575H85.9984ZM395.87 129.752C395.678 128.92 394.806 128.452 393.994 128.712C393.89 128.744 393.778 128.776 393.662 128.808L294.991 154.619C292.479 155.275 292.375 156.855 294.867 156.551L392.642 144.547C395.482 144.199 394.802 146.175 391.934 146.599L293.279 161.159C290.768 161.531 289.736 163.235 292.019 163.243L381.662 163.587C384.266 163.595 382.51 165.655 379.838 165.723L287.924 168.039C285.584 168.099 283.692 169.815 285.612 170.135L361.014 182.803C363.206 183.171 360.495 185.171 358.199 184.875L279.284 174.791C277.272 174.535 274.656 176.143 276.08 176.755L332.107 200.887C333.735 201.587 330.251 203.391 328.495 202.759L267.964 180.963C266.42 180.407 263.252 181.799 264.088 182.663L296.919 216.61C297.871 217.598 293.859 219.082 292.751 218.15L254.724 186.123C253.756 185.307 250.252 186.387 250.44 187.443L257.836 228.894C258.336 231.702 254.276 232.718 253.4 229.998L240.472 189.927C240.144 188.907 236.54 189.599 236.068 190.775L217.529 236.902C216.989 238.242 212.749 238.818 213.125 237.498L226.176 192.111C226.508 190.955 223.056 191.215 221.956 192.431L178.741 240.094C177.485 241.478 173.565 241.522 174.673 240.138L212.813 192.531C213.785 191.319 210.717 191.127 209.065 192.299L144.122 238.25C142.234 239.586 138.902 239.094 140.662 237.742L201.293 191.155C202.837 189.967 200.365 189.339 198.269 190.387L116.022 231.494C113.634 232.69 111.114 231.698 113.41 230.466L192.397 188.079C194.409 186.999 192.697 185.979 190.305 186.831L96.3623 220.29C93.6343 221.262 92.1023 219.838 94.7743 218.81L186.737 183.507C189.081 182.607 188.249 181.259 185.721 181.859L86.4824 205.391C86.4824 205.391 86.4704 205.39 86.4624 205.394C85.6544 205.582 85.1424 206.382 85.3584 207.182C103.602 275.853 166.369 326.389 240.88 325.989C329.219 325.517 400.758 252.922 399.994 164.583C399.89 152.611 398.474 140.951 395.878 129.744L395.87 129.752Z" fill="#009FFF"/>
<path d="M454.922 345.2C455.472 345.2 455.917 345.646 455.917 346.195V347.787C455.917 348.337 455.472 348.782 454.922 348.782H452.067C451.988 348.782 451.925 348.846 451.925 348.925V359.115C451.925 359.665 451.48 360.11 450.93 360.11H448.587C448.038 360.11 447.592 359.665 447.592 359.115V348.925C447.592 348.846 447.528 348.782 447.45 348.782H444.595C444.046 348.782 443.6 348.337 443.6 347.787V346.195C443.6 345.646 444.046 345.2 444.595 345.2H454.922ZM461.546 345.2C461.959 345.2 462.33 345.456 462.477 345.842L465.321 353.323C465.367 353.445 465.54 353.445 465.586 353.323L468.429 345.842C468.576 345.456 468.947 345.2 469.36 345.2H473.005C473.555 345.2 474 345.646 474 346.195V359.115C474 359.665 473.555 360.11 473.005 360.11H470.867C470.317 360.11 469.872 359.665 469.871 359.115V351.958L467.15 359.455C467.007 359.848 466.633 360.11 466.214 360.11H464.658C464.239 360.11 463.865 359.848 463.722 359.455L461 351.958V359.115C461 359.665 460.555 360.11 460.005 360.11H457.868C457.318 360.11 456.873 359.665 456.872 359.115V346.195C456.872 345.646 457.318 345.2 457.868 345.2H461.546Z" fill="#009FFF"/>
<path d="M349.17 359.205C349.357 358.506 349.991 358.02 350.715 358.02H430.081C440.889 358.02 448.362 362.848 446.752 368.827L440.517 392.016C440.329 392.715 439.696 393.2 438.972 393.2H417.453C416.4 393.2 415.634 392.201 415.908 391.184L418.757 380.611L420.711 373.426L421.401 370.666C421.919 368.884 419.677 367.39 416.4 367.39H410.742C409.935 367.39 409.357 368.013 409.114 368.783C409.109 368.797 409.104 368.812 409.099 368.827L402.865 392.016C402.677 392.715 402.043 393.2 401.319 393.2H379.801C378.748 393.2 377.982 392.201 378.256 391.184L381.104 380.611L383.059 373.426L383.806 370.666C384.266 368.884 382.024 367.39 378.747 367.39H373.075C372.352 367.39 371.718 367.875 371.53 368.573L365.212 392.017C365.024 392.715 364.391 393.2 363.667 393.2H342.145C341.093 393.2 340.327 392.202 340.6 391.186L349.17 359.205Z" fill="#009FFF"/>
<path d="M325.386 358.02C336.193 358.02 343.666 362.848 342.057 368.827L335.878 392.012C335.691 392.713 335.057 393.2 334.332 393.2H277.731C268.361 393.2 261.808 389.004 263.245 383.83L264.165 380.324C265.544 375.15 274.34 370.896 283.71 370.896H316.429C316.564 370.896 316.687 370.82 316.747 370.7C316.758 370.678 316.767 370.654 316.773 370.629C317.192 368.864 314.959 367.39 311.705 367.39H273.669C272.616 367.39 271.85 366.389 272.125 365.373L273.79 359.203C273.979 358.504 274.612 358.02 275.335 358.02H325.386ZM291.24 383.83H311.984C312.703 383.83 313.333 383.352 313.526 382.66L313.611 382.353C313.895 381.333 313.128 380.324 312.07 380.324H292.217C290.435 380.324 288.768 381.129 288.538 382.048C288.251 383.026 289.516 383.83 291.24 383.83Z" fill="#009FFF"/>
<path d="M224.878 367.39C221.659 367.39 218.612 368.884 218.152 370.666C218.123 370.783 218.211 370.896 218.331 370.896H261.997C263.049 370.896 263.815 371.894 263.542 372.911L261.871 379.138C261.684 379.838 261.05 380.324 260.326 380.324H215.875C215.688 380.324 215.52 380.438 215.45 380.611C214.99 382.393 217.232 383.83 220.509 383.83H258.544C259.597 383.83 260.363 384.83 260.089 385.847L258.423 392.017C258.235 392.715 257.602 393.2 256.879 393.2H206.827C196.02 393.2 188.547 388.372 190.157 382.451L193.778 368.827C195.388 362.848 205.448 358.02 216.255 358.02H265.455C266.504 358.02 267.27 359.013 267.002 360.028L265.374 366.198C265.189 366.9 264.554 367.39 263.827 367.39H224.878Z" fill="#009FFF"/>
<path d="M176.589 358.02C185.959 358.02 192.455 362.216 191.075 367.39L190.155 370.896C188.776 376.127 179.981 380.324 170.61 380.324C170.322 380.324 170.21 380.699 170.452 380.857L184.892 390.26C186.226 391.128 185.611 393.2 184.019 393.2H160.968C160.658 393.2 160.355 393.11 160.095 392.941L141.116 380.583C140.857 380.414 140.553 380.324 140.243 380.324H138.842C138.118 380.324 137.484 380.81 137.296 381.51L134.483 392.014C134.295 392.714 133.661 393.2 132.937 393.2H111.416C110.364 393.2 109.599 392.203 109.871 391.186L112.781 380.324L118.441 359.205C118.629 358.506 119.262 358.02 119.987 358.02H176.589ZM165.782 369.172C166.069 368.194 164.804 367.39 163.08 367.39H142.336C141.617 367.39 140.987 367.868 140.794 368.56L140.709 368.867C140.425 369.886 141.192 370.896 142.25 370.896H162.103C163.885 370.896 165.494 370.149 165.782 369.172Z" fill="#009FFF"/>
<path d="M92.6539 346.273C92.8407 345.573 93.475 345.085 94.1999 345.085H115.72C116.771 345.085 117.537 346.083 117.265 347.099L107.802 382.451C106.25 388.372 96.1898 393.2 85.3826 393.2H49.6844C38.8772 393.2 31.4042 388.372 33.0138 382.451L36.6353 368.827C38.2449 362.848 48.3048 358.02 59.112 358.02H88.2923C89.0172 358.02 89.6515 357.532 89.8383 356.832L92.6539 346.273ZM83.4856 380.611L86.4591 369.4C86.7283 368.385 85.9629 367.39 84.9126 367.39H67.7347C64.5156 367.39 61.4689 368.884 61.009 370.666L58.3072 380.611C57.8473 382.393 60.0892 383.83 63.3659 383.83H76.7024C79.979 383.83 83.0257 382.393 83.4856 380.611Z" fill="#009FFF"/>
</g>
<defs>
<clipPath id="clip0_356_74">
<rect width="480" height="400" fill="white"/>
</clipPath>
</defs>
</svg>
