<?xml version="1.0" encoding="UTF-8"?>
<svg id="Layer_2" data-name="Layer 2" xmlns="http://www.w3.org/2000/svg" viewBox="0 0 800 800">
  <g id="Layer_1-2" data-name="Layer 1">
    <path d="M15,493.94c-2,.53-4.07-.63-4.54-2.65C3.89,463.11.29,433.78.02,403.66-1.96,182.55,177.24.89,398.36,0c186.3-.75,343.15,125.88,388.45,297.78.54,2.06-.83,4.1-2.92,4.49-.28.05-.56.11-.86.18l-248.1,58.83c-6.32,1.5-8.4-1.87-2.54-4.12l229.91-88.26c6.68-2.56,2.85-6.13-3.97-3.7l-234.86,83.65c-5.98,2.13-10.26-.42-5.23-3.12l197.47-105.97c5.74-3.08-.56-5.56-6.53-2.57l-205.62,102.77c-5.24,2.62-11.42,1.05-7.56-1.92l151.58-116.47c4.4-3.38-3.93-4.61-8.65-1.27l-162.36,114.88c-4.14,2.93-11.8,2.45-9.37-.58l95.35-119.02c2.77-3.46-7.03-3.35-10.17.11l-108.04,119.16c-2.75,3.04-11.38,3.69-10.55.8l32.63-113.47c.95-3.3-9.66-1.86-11.01,1.49l-46.35,115.32c-1.18,2.94-10.18,4.67-11.01,2.12l-32.32-100.18c-2.19-6.79-12.34-4.26-11.09,2.76l18.49,103.63c.47,2.64-8.29,5.34-10.71,3.3l-95.07-80.07c-2.76-2.33-12.8,1.39-10.42,3.85l82.08,84.87c2.09,2.16-5.83,5.64-9.69,4.25l-151.33-54.49c-4.4-1.58-13.1,2.93-9.03,4.68l140.07,60.33c3.57,1.54-2.98,5.56-8.01,4.91l-197.29-25.21c-5.73-.73-12.51,4.26-7.04,5.18l188.51,31.67c4.8.81.08,5.09-5.78,5.24l-229.79,5.79c-6.68.17-11.07,5.31-4.56,5.34l224.11.86c5.71.02,3.13,4.29-3.15,5.21l-246.64,36.4c-7.17,1.06-8.87,6-1.77,5.13l244.44-30.01c6.23-.76,5.97,3.19-.31,4.83L15.06,493.93s-.04,0-.05.01ZM789.69,309.38c-.48-2.08-2.66-3.25-4.69-2.6-.26.08-.54.16-.83.24l-246.68,64.53c-6.28,1.64-6.54,5.59-.31,4.83l244.44-30.01c7.1-.87,5.4,4.07-1.77,5.13l-246.64,36.4c-6.28.93-8.86,5.19-3.15,5.21l224.11.86c6.51.02,2.12,5.17-4.56,5.34l-229.79,5.79c-5.85.15-10.58,4.44-5.78,5.24l188.51,31.67c5.48.92-1.3,5.92-7.04,5.18l-197.29-25.21c-5.03-.64-11.57,3.38-8.01,4.91l140.07,60.33c4.07,1.75-4.64,6.26-9.03,4.68l-151.33-54.49c-3.86-1.39-11.78,2.09-9.69,4.25l82.08,84.87c2.38,2.47-7.65,6.18-10.42,3.85l-95.07-80.07c-2.42-2.04-11.18.66-10.71,3.3l18.49,103.63c1.25,7.02-8.9,9.56-11.09,2.76l-32.32-100.18c-.82-2.55-9.83-.82-11.01,2.12l-46.35,115.32c-1.35,3.35-11.95,4.79-11.01,1.49l32.63-113.47c.83-2.89-7.8-2.24-10.55.8l-108.04,119.16c-3.14,3.46-12.94,3.57-10.17.11l95.35-119.02c2.43-3.03-5.24-3.51-9.37-.58l-162.36,114.88c-4.72,3.34-13.05,2.11-8.65-1.27l151.58-116.47c3.86-2.97-2.32-4.54-7.56-1.92l-205.62,102.77c-5.97,2.99-12.27.51-6.53-2.57l197.47-105.97c5.03-2.7.75-5.25-5.23-3.12l-234.86,83.65c-6.82,2.43-10.65-1.13-3.97-3.7l229.91-88.26c5.86-2.25,3.78-5.62-2.54-4.12l-248.1,58.83s-.03,0-.05.01c-2.02.47-3.3,2.47-2.76,4.47,45.61,171.68,202.53,298.02,388.81,297.02,220.85-1.18,399.7-182.67,397.79-403.52-.26-29.93-3.8-59.08-10.29-87.1Z"/>
  </g>
</svg>