<svg width="1080" height="1080" viewBox="0 0 1080 1080" fill="none" xmlns="http://www.w3.org/2000/svg">
<rect width="1080" height="1080" fill="#009FFF"/>
<path d="M732.479 742.819H699.342C697.408 742.819 695.841 744.387 695.841 746.321V861.652C695.841 863.586 697.408 865.154 699.342 865.154H719.379C721.313 865.154 722.881 863.586 722.881 861.652V785.703L749.813 862.807C750.304 864.212 751.63 865.154 753.119 865.154H770.135C771.628 865.154 772.956 864.207 773.444 862.797L800.378 784.918V861.652C800.378 863.586 801.946 865.154 803.88 865.154H823.917C825.851 865.154 827.419 863.586 827.419 861.652V746.321C827.419 744.387 825.851 742.819 823.917 742.819H790.81C789.289 742.819 787.942 743.801 787.477 745.248L762.36 823.301L735.794 745.193C735.311 743.774 733.978 742.819 732.479 742.819Z" fill="white" stroke="white" stroke-width="2.33427"/>
<path d="M646.751 816.433H622.234C621.428 816.433 620.864 815.635 621.134 814.875L634.711 776.625L647.855 814.887C648.115 815.644 647.552 816.433 646.751 816.433ZM646.889 742.819H623.062C621.606 742.819 620.302 743.72 619.787 745.082L576.175 860.414C575.308 862.704 577.001 865.154 579.45 865.154H600.973C602.459 865.154 603.782 864.216 604.276 862.815L612.59 839.21C612.754 838.743 613.195 838.431 613.69 838.431H655.239C655.739 838.431 656.184 838.749 656.344 839.223L664.344 862.778C664.827 864.198 666.16 865.154 667.66 865.154H690.017C692.461 865.154 694.153 862.714 693.297 860.426L650.169 745.094C649.657 743.726 648.35 742.819 646.889 742.819Z" fill="white" stroke="white" stroke-width="2.33427"/>
<path d="M573.832 742.819H488.752C486.819 742.819 485.251 744.387 485.251 746.321V861.652C485.251 863.586 486.819 865.154 488.752 865.154H575.176C577.11 865.154 578.678 863.586 578.678 861.652V844.136C578.678 842.202 577.11 840.635 575.176 840.635H515.139C514.494 840.635 513.972 840.112 513.972 839.467V814.724C513.972 814.08 514.494 813.557 515.139 813.557H568.622C570.556 813.557 572.123 811.989 572.123 810.056V794.22C572.123 792.286 570.556 790.719 568.622 790.719H515.139C514.494 790.719 513.972 790.196 513.972 789.551V768.506C513.972 767.861 514.494 767.339 515.139 767.339H573.832C575.766 767.339 577.333 765.771 577.333 763.837V746.321C577.333 744.387 575.766 742.819 573.832 742.819Z" fill="white" stroke="white" stroke-width="2.33427"/>
<path d="M439.982 769.397L439.991 769.405L440.001 769.413C442.663 771.681 444.128 775.482 444.128 781.129C444.128 787.013 442.656 790.989 439.982 793.366C437.255 795.791 433.046 797.105 427.144 797.105H400.571C399.926 797.105 399.404 796.583 399.404 795.938V766.825C399.404 766.18 399.926 765.658 400.571 765.658H427.144C433.046 765.658 437.255 766.972 439.982 769.397ZM471.335 835.515L471.334 835.506L471.333 835.497C471.106 832.421 470.65 829.347 469.969 826.274C469.388 823.151 468.401 820.298 466.998 817.723C465.589 815.026 463.764 812.727 461.523 810.836C459.828 809.323 457.819 808.122 455.512 807.221C461.207 804.511 465.45 800.78 468.156 795.998C471.3 790.636 472.849 784.321 472.849 777.096C472.849 772.363 471.984 767.954 470.242 763.881C468.613 759.7 466.17 756.037 462.92 752.902C459.774 749.758 455.943 747.325 451.446 745.593C447.027 743.735 442.057 742.819 436.556 742.819H374.184C372.251 742.819 370.683 744.387 370.683 746.321V861.652C370.683 863.586 372.251 865.154 374.184 865.154H395.902C397.836 865.154 399.404 863.586 399.404 861.652V819.43C399.404 818.785 399.926 818.263 400.571 818.263H424.623C431.104 818.263 435.49 819.697 438.084 822.291C440.745 824.952 442.589 829.26 443.467 835.41C444.135 840.196 444.637 845.209 444.971 850.447C445.269 855.108 446 859.242 447.179 862.837C447.648 864.266 448.993 865.154 450.431 865.154H470.605C472.063 865.154 473.19 864.286 473.805 863.217C474.416 862.156 474.605 860.777 474.116 859.522C473.884 858.927 473.674 858.302 473.485 857.646C472.939 855.238 472.501 852.718 472.171 850.084C471.949 847.418 471.783 844.808 471.672 842.255C471.559 839.674 471.447 837.427 471.335 835.515Z" fill="white" stroke="white" stroke-width="2.33427"/>
<path d="M330.845 789.791L330.849 789.807L330.852 789.822C332.056 794.528 332.665 799.862 332.665 805.835C332.665 812.354 331.835 817.812 330.215 822.241C328.58 826.71 326.419 830.312 323.755 833.085C321.075 835.762 318.036 837.678 314.629 838.849C311.166 840.04 307.597 840.635 303.916 840.635H282.721C282.076 840.635 281.554 840.112 281.554 839.467V768.506C281.554 767.861 282.076 767.339 282.721 767.339H299.21C305.603 767.339 310.867 768.277 315.046 770.098L315.063 770.106L315.079 770.112C319.387 771.836 322.797 774.349 325.346 777.642C327.916 780.962 329.757 785.002 330.845 789.791ZM330.109 860.513L330.117 860.509C337.096 857.306 342.897 852.947 347.497 847.428C352.203 841.918 355.692 835.387 357.974 827.854C360.252 820.336 361.386 812.154 361.386 803.314C361.386 793.24 359.971 784.413 357.111 776.858C354.372 769.329 350.48 763.019 345.418 757.956C340.476 752.9 334.558 749.111 327.682 746.589C320.93 744.072 313.62 742.819 305.765 742.819H256.334C254.4 742.819 252.833 744.387 252.833 746.321V861.652C252.833 863.586 254.401 865.154 256.334 865.154H305.765C315.078 865.154 323.204 863.621 330.109 860.513Z" fill="white" stroke="white" stroke-width="2.33427"/>
<path d="M308.998 512.362C307.798 512.68 306.556 511.984 306.274 510.772C302.332 493.864 300.172 476.266 300.01 458.195C298.822 325.53 406.34 216.536 539.01 216.002C650.789 215.552 744.897 291.529 772.077 394.667C772.401 395.903 771.579 397.127 770.325 397.361C770.157 397.391 769.989 397.427 769.809 397.469L620.951 432.767C617.159 433.667 615.911 431.645 619.427 430.295L757.371 377.34C761.379 375.804 759.081 373.662 754.989 375.12L614.075 425.309C610.487 426.587 607.919 425.057 610.937 423.437L729.418 359.856C732.862 358.008 729.082 356.52 725.5 358.314L602.129 419.975C598.985 421.547 595.278 420.605 597.594 418.823L688.54 348.942C691.18 346.914 686.182 346.176 683.35 348.18L585.936 417.107C583.452 418.865 578.856 418.577 580.314 416.759L637.523 345.348C639.185 343.272 633.305 343.338 631.421 345.414L566.598 416.909C564.948 418.733 559.77 419.123 560.268 417.389L579.846 349.308C580.416 347.328 574.05 348.192 573.24 350.202L545.43 419.393C544.722 421.157 539.322 422.195 538.824 420.665L519.433 360.558C518.119 356.484 512.029 358.002 512.779 362.214L523.873 424.391C524.155 425.975 518.899 427.595 517.447 426.371L460.405 378.33C458.749 376.932 452.726 379.164 454.154 380.64L503.401 431.561C504.655 432.857 499.903 434.945 497.587 434.111L406.79 401.417C404.15 400.469 398.93 403.175 401.372 404.225L485.413 440.423C487.555 441.347 483.625 443.759 480.607 443.369L362.235 428.243C358.797 427.805 354.729 430.799 358.011 431.351L471.115 450.353C473.995 450.839 471.163 453.407 467.647 453.497L329.775 456.971C325.767 457.073 323.133 460.157 327.039 460.175L461.503 460.691C464.929 460.703 463.381 463.264 459.613 463.816L311.632 485.656C307.33 486.292 306.31 489.256 310.57 488.734L457.232 470.728C460.969 470.272 460.813 472.642 457.046 473.626L309.034 512.356C309.034 512.356 309.01 512.356 309.004 512.362H308.998ZM773.805 401.627C773.517 400.379 772.209 399.677 770.991 400.067C770.835 400.115 770.667 400.163 770.493 400.211L622.487 438.929C618.719 439.913 618.563 442.283 622.301 441.827L768.963 423.821C773.223 423.299 772.203 426.263 767.901 426.899L619.919 448.739C616.151 449.297 614.603 451.853 618.029 451.865L752.493 452.381C756.399 452.393 753.765 455.483 749.757 455.585L611.885 459.059C608.375 459.149 605.537 461.722 608.417 462.202L721.522 481.204C724.81 481.756 720.742 484.756 717.298 484.312L598.925 469.186C595.908 468.802 591.984 471.214 594.12 472.132L678.16 508.33C680.602 509.38 675.376 512.086 672.742 511.138L581.946 478.444C579.63 477.61 574.878 479.698 576.132 480.994L625.379 531.915C626.807 533.397 620.789 535.623 619.127 534.225L562.086 486.184C560.634 484.96 555.378 486.58 555.66 488.164L566.754 550.341C567.504 554.553 561.414 556.077 560.1 551.997L540.708 491.89C540.216 490.36 534.81 491.398 534.102 493.162L506.293 562.353C505.483 564.363 499.123 565.227 499.687 563.247L519.265 495.166C519.763 493.432 514.585 493.822 512.935 495.646L448.112 567.141C446.228 569.217 440.348 569.283 442.01 567.207L499.219 495.796C500.677 493.978 496.075 493.69 493.597 495.448L396.182 564.375C393.35 566.379 388.352 565.641 390.992 563.613L481.939 493.732C484.255 491.95 480.547 491.008 477.403 492.58L354.033 554.241C350.451 556.035 346.671 554.547 350.115 552.699L468.595 489.118C471.613 487.498 469.045 485.968 465.457 487.246L324.543 537.435C320.451 538.893 318.153 536.757 322.161 535.215L460.105 482.26C463.621 480.91 462.373 478.888 458.581 479.788L309.724 515.086C309.724 515.086 309.706 515.086 309.694 515.092C308.482 515.374 307.714 516.574 308.038 517.774C335.403 620.78 429.554 696.583 541.32 695.983C673.828 695.275 781.137 586.383 779.991 453.875C779.835 435.917 777.711 418.427 773.817 401.615L773.805 401.627Z" fill="white"/>
</svg>
